<svg width="183" height="20" viewBox="0 0 183 20" fill="none" xmlns="http://www.w3.org/2000/svg">
<path d="M5.104 15.58C3.67467 15.58 2.56 15.228 1.76 14.524C0.96 13.8093 0.56 12.764 0.56 11.388C0.56 10.0013 0.96 8.956 1.76 8.252C2.56 7.53733 3.67467 7.18 5.104 7.18H10.464V9.02H5.104C4.41067 9.02 3.87733 9.212 3.504 9.596C3.14133 9.98 2.96 10.5773 2.96 11.388C2.96 12.188 3.14133 12.78 3.504 13.164C3.87733 13.548 4.41067 13.74 5.104 13.74H10.624V15.58H5.104ZM14.4415 15.5C13.5028 15.5 12.8148 15.2653 12.3775 14.796C11.9508 14.3267 11.7375 13.7187 11.7375 12.972V7.26H14.0575V12.7C14.0575 13.34 14.3775 13.66 15.0175 13.66H18.3455C18.9855 13.66 19.3055 13.34 19.3055 12.7V7.26H21.6255V12.972C21.6255 13.7187 21.4068 14.3267 20.9695 14.796C20.5428 15.2653 19.8602 15.5 18.9215 15.5H14.4415ZM23.0619 11.756V9.916H27.9579V11.756H23.0619ZM33.6978 15.58C32.2684 15.58 31.1538 15.228 30.3538 14.524C29.5538 13.8093 29.1538 12.764 29.1538 11.388C29.1538 10.0013 29.5538 8.956 30.3538 8.252C31.1538 7.53733 32.2684 7.18 33.6978 7.18H39.0578V9.02H33.6978C33.0044 9.02 32.4711 9.212 32.0978 9.596C31.7351 9.98 31.5538 10.5773 31.5538 11.388C31.5538 12.188 31.7351 12.78 32.0978 13.164C32.4711 13.548 33.0044 13.74 33.6978 13.74H39.2178V15.58H33.6978ZM42.2673 19.1V17.26H47.0993C47.7393 17.26 48.0593 16.9347 48.0593 16.284V15.5H43.1153C42.1766 15.5 41.4886 15.2653 41.0513 14.796C40.6246 14.3267 40.4113 13.7187 40.4113 12.972V7.26H42.7313V12.7C42.7313 13.34 43.0513 13.66 43.6913 13.66H47.9792V7.26H50.3793V16.572C50.3793 17.3293 50.1606 17.9373 49.7233 18.396C49.2859 18.8653 48.6033 19.1 47.6753 19.1H42.2673ZM52.1456 19.1V7.26H58.0656C59.495 7.26 60.6096 7.612 61.4096 8.316C62.2096 9.02 62.6096 10.0387 62.6096 11.372C62.6096 12.716 62.2096 13.74 61.4096 14.444C60.6096 15.148 59.495 15.5 58.0656 15.5H54.4656V19.1H52.1456ZM58.0656 9.1H54.4656V13.66H58.0656C58.759 13.66 59.287 13.4733 59.6496 13.1C60.023 12.716 60.2096 12.14 60.2096 11.372C60.2096 10.6147 60.023 10.0493 59.6496 9.676C59.287 9.292 58.759 9.1 58.0656 9.1ZM64.0519 15.5V4.06H66.3719V7.26H71.2359C72.1745 7.26 72.8572 7.49467 73.2839 7.964C73.7212 8.42267 73.9399 9.03067 73.9399 9.788V15.5H71.6199V10.06C71.6199 9.42 71.2999 9.1 70.6599 9.1H66.3719V15.5H64.0519ZM79.8384 15.58C78.409 15.58 77.2944 15.228 76.4944 14.524C75.6944 13.8093 75.2944 12.764 75.2944 11.388C75.2944 10.0013 75.6944 8.956 76.4944 8.252C77.2944 7.53733 78.409 7.18 79.8384 7.18H83.8384C84.777 7.18 85.4917 7.404 85.9824 7.852C86.4837 8.28933 86.7344 8.91867 86.7344 9.74C86.7344 11.4147 85.769 12.252 83.8384 12.252H77.7904C78.0144 13.244 78.697 13.74 79.8384 13.74H86.3184V15.58H79.8384ZM79.8384 9.02C78.7397 9.02 78.0624 9.484 77.8064 10.412H83.7264C83.9397 10.412 84.105 10.348 84.2224 10.22C84.3504 10.092 84.4144 9.916 84.4144 9.692C84.4144 9.244 84.185 9.02 83.7264 9.02H79.8384ZM88.1769 15.5V7.26H94.4809C95.4089 7.26 96.0915 7.49467 96.5289 7.964C96.9662 8.42267 97.1849 9.03067 97.1849 9.788V11.5H94.8329V10.076C94.8329 9.436 94.5129 9.116 93.8729 9.116H90.5289V15.5H88.1769ZM98.4581 19.1V7.26H104.378C105.807 7.26 106.922 7.612 107.722 8.316C108.522 9.02 108.922 10.0387 108.922 11.372C108.922 12.716 108.522 13.74 107.722 14.444C106.922 15.148 105.807 15.5 104.378 15.5H100.778V19.1H98.4581ZM104.378 9.1H100.778V13.66H104.378C105.071 13.66 105.599 13.4733 105.962 13.1C106.335 12.716 106.522 12.14 106.522 11.372C106.522 10.6147 106.335 10.0493 105.962 9.676C105.599 9.292 105.071 9.1 104.378 9.1ZM112.988 15.5C112.05 15.5 111.362 15.2653 110.924 14.796C110.498 14.3267 110.284 13.7187 110.284 12.972V7.26H112.604V12.7C112.604 13.34 112.924 13.66 113.564 13.66H116.892C117.532 13.66 117.852 13.34 117.852 12.7V7.26H120.172V12.972C120.172 13.7187 119.954 14.3267 119.516 14.796C119.09 15.2653 118.407 15.5 117.468 15.5H112.988ZM121.849 15.5V7.26H129.033C129.971 7.26 130.654 7.49467 131.081 7.964C131.518 8.42267 131.737 9.03067 131.737 9.788V15.5H129.417V10.06C129.417 9.42 129.097 9.1 128.457 9.1H124.169V15.5H121.849ZM133.411 15.5V4.06H135.731V7.26H141.267C142.206 7.26 142.921 7.484 143.411 7.932C143.913 8.36933 144.163 8.99867 144.163 9.82C144.163 11.164 143.523 11.964 142.243 12.22L144.195 15.5H141.587L139.699 12.316H135.731V15.5H133.411ZM141.155 9.084H135.731V10.492H141.155C141.369 10.492 141.534 10.428 141.651 10.3C141.779 10.172 141.843 9.996 141.843 9.772C141.843 9.31333 141.614 9.084 141.155 9.084ZM145.71 15.5V13.212H148.27V15.5H145.71ZM154.37 15.58C152.94 15.58 151.826 15.228 151.026 14.524C150.226 13.8093 149.826 12.764 149.826 11.388C149.826 10.0013 150.226 8.956 151.026 8.252C151.826 7.53733 152.94 7.18 154.37 7.18H158.37C159.308 7.18 160.023 7.404 160.514 7.852C161.015 8.28933 161.266 8.91867 161.266 9.74C161.266 11.4147 160.3 12.252 158.37 12.252H152.322C152.546 13.244 153.228 13.74 154.37 13.74H160.85V15.58H154.37ZM154.37 9.02C153.271 9.02 152.594 9.484 152.338 10.412H158.258C158.471 10.412 158.636 10.348 158.754 10.22C158.882 10.092 158.946 9.916 158.946 9.692C158.946 9.244 158.716 9.02 158.258 9.02H154.37ZM167.309 15.5C166.381 15.5 165.698 15.2707 165.261 14.812C164.823 14.3427 164.605 13.7293 164.605 12.972V9.1H162.221V7.26H164.605V4.732H166.925V7.26H170.349V9.1H166.925V12.684C166.925 13.3347 167.245 13.66 167.885 13.66H170.797V15.5H167.309ZM171.989 15.5V4.06H174.309V7.26H179.173C180.112 7.26 180.795 7.49467 181.221 7.964C181.659 8.42267 181.877 9.03067 181.877 9.788V15.5H179.557V10.06C179.557 9.42 179.237 9.1 178.597 9.1H174.309V15.5H171.989Z" fill="white"/>
</svg>
